<svg version="1.1" id="Layer_1" xmlns="http://www.w3.org/2000/svg" xmlns:xlink="http://www.w3.org/1999/xlink" x="0px"
    y="0px" width="16" height="16" viewBox="0 0 192 192" enable-background="new 0 0 192 192" xml:space="preserve">
    <!-- Outer red circle -->
    <path fill="#E85A4F" opacity="1.000000" stroke="none" d="
M92.981041,162.318008 
	C84.419777,160.670853 76.128456,159.909607 68.587563,155.850296 
	C59.086761,150.735962 52.589577,142.785873 47.531555,133.717041 
	C42.332024,124.394440 38.275677,114.389214 37.759598,103.573235 
	C36.600796,79.287117 48.823620,61.506313 68.123543,49.221382 
	C83.923676,39.164173 102.080307,35.419514 119.977364,44.491009 
	C134.606537,51.906105 146.460678,62.736320 153.259399,78.263374 
	C155.442154,83.248413 159.087952,87.479309 160.194077,93.074730 
	C162.379074,104.127846 161.301193,114.702728 155.746307,124.492393 
	C146.595459,140.619370 135.145630,154.437943 116.520615,160.179138 
	C109.006927,162.495270 101.323105,163.802872 92.981041,162.318008 
M69.481163,79.820435 
	C64.399780,83.055183 62.094112,87.737495 62.143635,93.703285 
	C62.192032,99.533630 62.029167,105.368553 62.199879,111.194412 
	C62.476280,120.627312 68.713394,126.666893 78.111877,126.701157 
	C91.440224,126.749741 104.768974,126.745064 118.097366,126.702385 
	C128.225998,126.669952 134.527115,120.385582 134.681961,110.177773 
	C134.762817,104.847572 134.759201,99.514313 134.685669,94.183929 
	C134.542725,83.820053 128.115173,77.401443 117.731888,77.345955 
	C105.070152,77.278290 92.407219,77.398811 79.746010,77.293480 
	C76.315903,77.264946 73.138916,77.836243 69.481163,79.820435 
z" />
    <!-- White background for play area -->
    <rect x="62" y="77" width="73" height="50" rx="8" ry="8" fill="#ffffff" opacity="0.98" />
    <!-- Play triangle -->
    <path fill="#D73027" opacity="1.000000" stroke="none" d="
M112.131332,100.727989 
	C113.316292,102.739319 112.019882,103.461998 110.845284,104.048836 
	C105.799713,106.569626 100.790520,109.185509 95.622292,111.431274 
	C91.637726,113.162704 90.078064,112.059372 89.904015,107.707008 
	C89.738228,103.561447 89.752403,99.403709 89.838112,95.254433 
	C89.930313,90.791435 91.922951,89.444305 95.840279,91.471100 
	C101.285690,94.288521 106.556374,97.443657 112.131332,100.727989 
z" />
</svg>